<svg xmlns="http://www.w3.org/2000/svg" version="1.1" xmlns:xlink="http://www.w3.org/1999/xlink" xmlns:svgjs="http://svgjs.dev/svgjs" width="2000" height="1500" viewBox="0 0 2000 1500"><rect width="2000" height="1500" fill="#ffffff"></rect><g transform="matrix(0.1915341888527102,0,0,0.1915341888527102,807.4965250375309,248.38709677419365)"><svg viewBox="0 0 95 248" data-background-color="#ffffff" preserveAspectRatio="xMidYMid meet" height="5221" width="2000" xmlns="http://www.w3.org/2000/svg" xmlns:xlink="http://www.w3.org/1999/xlink"><g id="tight-bounds" transform="matrix(1,0,0,1,0.2403805320049628,0.4000000000000057)"><svg viewBox="0 0 94.51923893599012 247.2" height="247.2" width="94.51923893599012"><g><svg viewBox="0 0 195.5067587096774 511.3167572769135" height="247.2" width="94.51923893599012"><g transform="matrix(1,0,0,1,15.796390107526875,264.1167572769135)"><svg viewBox="0 0 163.91397849462365 247.2" height="247.2" width="163.91397849462365"><g id="textblocktransform"><svg viewBox="0 0 163.91397849462365 247.2" height="247.2" width="163.91397849462365" id="textblock"><g><svg viewBox="0 0 163.91397849462365 247.2" height="247.2" width="163.91397849462365"><g transform="matrix(1,0,0,1,0,0)"><svg width="163.91397849462365" viewBox="0.4 -27.15 18.5 27.9" height="247.2" data-palette-color="#ffffff"><path d="M10.2-27.15Q14.9-27.15 18.15-24.05L18.15-24.05 15.8-20.7Q14.4-21.7 13.15-22.2 11.9-22.7 10.6-22.7L10.6-22.7Q9.15-22.7 8.33-21.93 7.5-21.15 7.5-19.8L7.5-19.8Q7.5-18.45 8.43-17.63 9.35-16.8 12.15-15.7L12.15-15.7Q15.6-14.35 17.25-12.5 18.9-10.65 18.9-7.55L18.9-7.55Q18.9-3.7 16.2-1.48 13.5 0.75 9.35 0.75L9.35 0.75Q6.65 0.75 4.38-0.23 2.1-1.2 0.4-2.95L0.4-2.95 3.4-6.25Q6.2-3.8 9.1-3.8L9.1-3.8Q10.75-3.8 11.7-4.67 12.65-5.55 12.65-7.1L12.65-7.1Q12.65-8.25 12.25-8.97 11.85-9.7 10.85-10.33 9.85-10.95 7.85-11.7L7.85-11.7Q4.4-13.05 2.93-14.85 1.45-16.65 1.45-19.45L1.45-19.45Q1.45-22.8 3.83-24.98 6.2-27.15 10.2-27.15L10.2-27.15Z" opacity="1" transform="matrix(1,0,0,1,0,0)" fill="#ffffff" class="wordmark-text-0" data-fill-palette-color="primary" id="text-0"></path></svg></g></svg></g></svg></g></svg></g><g><svg viewBox="0 0 195.5067587096774 205.75877007691355" height="205.75877007691355" width="195.5067587096774"><g><svg xmlns="http://www.w3.org/2000/svg" xmlns:xlink="http://www.w3.org/1999/xlink" version="1.1" x="0" y="0" viewBox="24.687 12.5 65.029 68.439" enable-background="new 0 0 100 100" xml:space="preserve" height="205.75877007691355" width="195.5067587096774" class="icon-icon-0" data-fill-palette-color="accent" id="icon-0"><path fill="#6eb1ff" d="M55.625 60.312A0.937 0.937 0 0 0 54.687 61.25C54.687 63.835 52.585 65.938 49.999 65.938S45.311 63.836 45.311 61.25A0.937 0.937 0 1 0 43.435 61.25C43.435 64.868 46.379 67.812 49.997 67.812S56.559 64.868 56.559 61.25A0.933 0.933 0 0 0 55.625 60.312" data-fill-palette-color="accent"></path><path fill="#6eb1ff" d="M42.5 54.688H38.75A0.937 0.937 0 1 0 38.75 56.564H42.5A0.937 0.937 0 1 0 42.5 54.688" data-fill-palette-color="accent"></path><path fill="#6eb1ff" d="M61.25 54.688H57.5A0.937 0.937 0 1 0 57.5 56.564H61.25A0.937 0.937 0 1 0 61.25 54.688" data-fill-palette-color="accent"></path><path fill="#6eb1ff" d="M75.036 32.462L61.915 19.337A0.98 0.98 0 0 0 61.25 19.063H29.375A4.693 4.693 0 0 0 24.687 23.751V76.251A4.693 4.693 0 0 0 29.375 80.939H70.625A4.693 4.693 0 0 0 75.313 76.251V33.125A1 1 0 0 0 75.242 32.766 1 1 0 0 0 75.036 32.462M65 32.188A2.815 2.815 0 0 1 62.188 29.376V22.264L72.112 32.188zM70.625 79.062H29.375A2.815 2.815 0 0 1 26.563 76.25V23.75A2.815 2.815 0 0 1 29.375 20.938H60.313V29.376A4.693 4.693 0 0 0 65.001 34.064H73.439V76.25A2.817 2.817 0 0 1 70.625 79.062" data-fill-palette-color="accent"></path><polygon fill="#6eb1ff" points="70.65,17.603 75.309,17.62 70.632,21.597 70.625,24.417 80.167,24.453 80.176,21.725 75.406,21.707   80.19,17.638 80.201,14.912 70.658,14.875 " data-fill-palette-color="accent"></polygon><polygon fill="#6eb1ff" points="82.578,14.54 86.061,14.551 82.567,17.524 82.558,19.63 89.69,19.658 89.697,17.62 86.132,17.605   89.705,14.565 89.716,12.529 82.583,12.5 " data-fill-palette-color="accent"></polygon></svg></g></svg></g><g></g></svg></g><defs></defs></svg><rect width="94.51923893599012" height="247.2" fill="none" stroke="none" visibility="hidden"></rect></g></svg></g></svg>